<?xml version="1.0" encoding="iso-8859-1"?>
<!-- Generator: Adobe Illustrator 19.0.0, SVG Export Plug-In . SVG Version: 6.00 Build 0)  -->
<svg version="1.1" id="Capa_1" xmlns="http://www.w3.org/2000/svg" xmlns:xlink="http://www.w3.org/1999/xlink" x="0px" y="0px"
	 viewBox="0 0 512 512" style="enable-background:new 0 0 512 512;" xml:space="preserve">
<rect x="155.823" y="273.452" transform="matrix(-0.7071 -0.7071 0.7071 -0.7071 32.9269 711.309)" style="fill:#EAEAE4;" width="15.915" height="150.766"/>
<path style="fill:#C16A14;" d="M14.693,508.815L3.834,497.957c-4.247-4.247-4.247-11.133,0-15.38l93.856-93.856
	c4.247-4.247,11.133-4.247,15.38,0l10.858,10.858c4.247,4.247,4.247,11.133,0,15.38l-93.856,93.856
	C25.826,513.062,18.94,513.062,14.693,508.815z"/>
<path style="fill:#AD5709;" d="M13.914,492.656L107.77,398.8c4.247-4.247,11.133-4.247,15.38,0l-10.079-10.079
	c-4.247-4.247-11.133-4.247-15.38,0L3.834,482.576c-4.247,4.247-4.247,11.133,0,15.38l10.079,10.079
	C9.667,503.789,9.667,496.903,13.914,492.656z"/>
<path style="fill:#D6D6D2;" d="M475.382,129.381l2.833-2.833l-40.43-40.43l13.253-13.253l-11.254-11.253L426.53,74.864
	L386.097,34.43l-2.823,2.823l-2.377-2.377l-39.991,39.99L315.708,49.67l-11.254,11.253l25.198,25.199l-31.551,31.551l-32.298-32.298
	l-0.002,0.002l-0.003-0.003l-11.254,11.254l32.301,32.301l-31.557,31.557l-25.197-25.197l-11.254,11.253l25.198,25.198
	l-39.991,39.991l2.386,2.386l-2.822,2.822l40.425,40.425l-13.249,13.249l11.254,11.253l13.249-13.249l40.421,40.421l2.833-2.832
	l2.386,2.386l39.98-39.982l25.197,25.197l11.254-11.253l-25.198-25.198l31.557-31.557l32.303,32.303l0.002-0.003l0.003,0.003
	l11.254-11.253l-32.307-32.307l31.551-31.551l25.198,25.198l11.254-11.253l-25.198-25.198l39.982-39.982L475.382,129.381z
	 M383.72,54.562l31.556,31.556l-31.56,31.559L352.16,86.121L383.72,54.562z M340.906,97.375l31.556,31.556l-31.551,31.551
	l-31.557-31.556L340.906,97.375z M298.099,140.182l31.556,31.557l-31.557,31.557l-31.556-31.557L298.099,140.182z M223.728,214.553
	l31.559-31.559l31.557,31.557l-31.559,31.559L223.728,214.553z M298.092,288.917l-31.554-31.554l31.559-31.559l31.554,31.554
	L298.092,288.917z M340.906,246.104l-31.554-31.554l31.557-31.557l31.554,31.554L340.906,246.104z M383.719,203.29l-31.554-31.553
	l31.551-31.551l31.554,31.553L383.719,203.29z M394.971,128.932l31.559-31.559l31.553,31.553l-31.559,31.56L394.971,128.932z"/>
<polygon style="fill:#EAEAE4;" points="22.807,140.592 126.218,105.115 153.3,70.296 126.218,35.477 22.807,0 "/>
<polygon style="fill:#D6D6D2;" points="22.807,70.296 142.477,70.296 126.218,35.477 22.807,0 "/>
<path style="fill:#E22342;" d="M126.218,35.477h19.344c19.231,0,34.82,15.589,34.82,34.82s-15.589,34.82-34.82,34.82h-19.344"/>
<path style="fill:#C9183A;" d="M145.562,58.292c15.234,0,28.173,9.787,32.897,23.412c1.239-3.576,1.921-7.411,1.921-11.408
	c0-19.231-15.589-34.82-34.82-34.82h-19.344v22.816H145.562z"/>
<path style="fill:#D6D6D2;" d="M472.72,39.929C413.046-19.746,305.657-9.108,232.86,63.69s-83.436,180.186-23.761,239.86
	c59.674,59.674,167.062,49.035,239.86-23.761C521.756,206.991,532.394,99.602,472.72,39.929z M421.648,252.477
	C392.735,281.389,356.743,299.3,320.3,302.91c-33.573,3.326-63.366-6.146-83.891-26.671c-20.525-20.525-29.998-50.319-26.671-83.891
	c3.611-36.443,21.521-72.435,50.433-101.348s64.904-46.823,101.348-50.433c33.573-3.326,63.366,6.146,83.891,26.671
	s29.998,50.319,26.671,83.891C468.471,187.573,450.56,223.565,421.648,252.477z"/>
<path style="fill:#EAEAE4;" d="M307.276,311.521c-30.346,0-57.139-10.3-76.495-29.656c-22.243-22.243-32.529-54.312-28.964-90.303
	c3.792-38.269,22.518-75.981,52.725-106.19c30.21-30.21,67.923-48.934,106.191-52.725c35.979-3.565,68.059,6.72,90.302,28.964
	c22.242,22.243,32.528,54.313,28.963,90.303c-3.791,38.268-22.516,75.98-52.725,106.19c-30.21,30.21-67.923,48.934-106.19,52.725
	C316.413,311.292,311.805,311.521,307.276,311.521z M374.493,47.873c-3.993,0-8.057,0.203-12.189,0.612
	c-34.617,3.429-68.891,20.526-96.505,48.142c-27.615,27.615-44.713,61.888-48.142,96.506c-3.086,31.155,5.571,58.672,24.381,77.479
	c18.808,18.807,46.328,27.466,77.479,24.38c34.617-3.429,68.889-20.526,96.504-48.142c27.616-27.616,44.714-61.889,48.142-96.505
	c3.086-31.155-5.571-58.672-24.38-77.48C423.47,56.552,400.601,47.873,374.493,47.873z"/>
<g>
</g>
<g>
</g>
<g>
</g>
<g>
</g>
<g>
</g>
<g>
</g>
<g>
</g>
<g>
</g>
<g>
</g>
<g>
</g>
<g>
</g>
<g>
</g>
<g>
</g>
<g>
</g>
<g>
</g>
</svg>
