<svg height="512pt" viewBox="0 0 512 512" width="512pt" xmlns="http://www.w3.org/2000/svg"><path d="m75 512c-8.285156 0-15-6.714844-15-15v-92c0-8.285156 6.714844-15 15-15s15 6.714844 15 15v92c0 8.285156-6.714844 15-15 15zm0 0" fill="#57545c"/><path d="m437 512c-8.285156 0-15-6.714844-15-15v-62c0-8.285156 6.714844-15 15-15s15 6.714844 15 15v62c0 8.285156-6.714844 15-15 15zm0 0" fill="#57545c"/><path d="m437 270h-272c-7.378906 0-14.34375 1.796875-20.496094 4.960938-9.507812-20.613282-30.355468-34.960938-54.503906-34.960938-33.085938 0-60 26.914062-60 60s26.914062 60 60 60c15.683594 0 29.976562-6.054688 40.675781-15.945312 8.261719 9.746093 20.578125 15.945312 34.324219 15.945312 8.285156 0 15-6.714844 15-15s-6.714844-15-15-15c-8.269531 0-15-6.730469-15-15s6.730469-15 15-15h272c8.285156 0 15-6.714844 15-15s-6.714844-15-15-15zm-347 60c-16.542969 0-30-13.457031-30-30s13.457031-30 30-30 30 13.457031 30 30-13.457031 30-30 30zm0 0" fill="#006ef4"/><path d="m317 420h-272c-24.8125 0-45-20.1875-45-45s20.1875-45 45-45h272c8.285156 0 15 6.714844 15 15s-6.714844 15-15 15h-272c-8.269531 0-15 6.730469-15 15s6.730469 15 15 15h272c8.285156 0 15 6.714844 15 15s-6.714844 15-15 15zm0 0" fill="#ae4b00"/><path d="m378.816406 103.183594c-6.925781-6.929688-15.75-11.300782-25.171875-12.695313 5.300781-8.941406 8.355469-19.363281 8.355469-30.488281 0-33.085938-26.914062-60-60-60s-60 26.914062-60 60 26.914062 60 60 60c.3125 0 .621094-.019531.933594-.023438l-46.742188 70.113282-49.316406 24.65625c-10.753906 5.378906-18.769531 14.617187-22.570312 26.023437-3.800782 11.402344-2.933594 23.601563 2.445312 34.363281 11.097656 22.171876 38.179688 31.195313 60.378906 20.121094l59.988282-29.996094c6.996093-3.496093 12.988281-8.789062 17.324218-15.296874l23.664063-35.503907c9.136719 20.386719 13.894531 42.621094 13.894531 65.402344v5.140625c0 8.285156 6.71875 15 15 15 8.285156 0 15-6.714844 15-15v-5.140625c0-36.609375-10.367188-72.058594-29.984375-102.519531-2.738281-4.25-7.4375-6.835938-12.496094-6.875-.039062 0-.078125 0-.117187 0-5.011719 0-9.699219 2.503906-12.480469 6.679687l-37.441406 56.175781c-1.445313 2.171876-3.445313 3.9375-5.777344 5.105469l-59.980469 29.988281c-7.402344 3.695313-16.441406.6875-20.140625-6.703124-3.699219-7.398438-.6875-16.429688 6.710938-20.128907l52.878906-26.441406c2.335937-1.167969 4.324219-2.921875 5.773437-5.09375l55.582032-83.378906c2.496094-3.75 6.5-6.152344 11.023437-6.597657 4.46875-.449218 8.855469 1.125 12.054688 4.324219 41.527343 41.527344 64.394531 96.738281 64.394531 155.464844v5.140625c0 8.285156 6.714844 15 15 15s15-6.714844 15-15v-5.140625c0-66.738281-25.988281-129.484375-73.183594-176.675781zm-106.816406-43.183594c0-16.542969 13.457031-30 30-30s30 13.457031 30 30-13.457031 30-30 30-30-13.457031-30-30zm0 0" fill="#ff0038"/><path d="m467 450h-120c-24.8125 0-45-20.1875-45-45v-120c0-8.285156 6.714844-15 15-15h150c24.8125 0 45 20.1875 45 45v90c0 24.8125-20.1875 45-45 45zm-135-150v105c0 8.269531 6.730469 15 15 15h120c8.269531 0 15-6.730469 15-15v-90c0-8.269531-6.730469-15-15-15zm0 0" fill="#ff74b6"/></svg>