<svg height="490pt" viewBox="0 -63 490.7277 490" width="490pt" xmlns="http://www.w3.org/2000/svg"><path d="m229.503906 108.535156-74.753906-44.652344c-4.648438-2.792968-10.816406-1.578124-14.058594 2.859376l-63.019531 86.121093c-.042969.066407-.042969.128907-.085937.191407-8.703126 11.179687-13.542969 25.089843-13.542969 39.296874 0 20.054688 9.449219 37.761719 23.933593 49.515626l-43.519531 75.390624-28.332031-16.746093c-5.054688-3.007813-11.605469-1.320313-14.632812 3.753906-3.007813 5.058594-1.324219 11.605469 3.753906 14.613281l74.667968 44.160156c1.707032 1.003907 3.582032 1.496094 5.4375 1.496094 3.648438 0 7.191407-1.878906 9.195313-5.25 3.007813-5.054687 1.324219-11.605468-3.753906-14.613281l-27.96875-16.554687 43.714843-75.753907c6.738282 2.429688 13.90625 3.988281 21.480469 3.988281 24.703125 0 47.382813-14.441406 57.921875-36.777343.042969-.066407.105469-.105469.125-.171875l47.554688-97.023438c2.429687-4.992187.640625-11.007812-4.117188-13.84375zm0 0" fill="#eceff1"/><path d="m128.042969 235.019531c-23.53125 0-42.667969-19.136719-42.667969-42.667969 0-6.527343 1.941406-12.585937 4.714844-18.304687l71.574218 44.054687c-7.980468 10.367188-20.226562 16.917969-33.621093 16.917969zm0 0" fill="#f44336"/><path d="m489.234375 304.222656c-3.027344-5.097656-9.578125-6.761718-14.632813-3.753906l-28.332031 16.769531-43.496093-75.414062c14.484374-11.734375 23.933593-29.441407 23.933593-49.492188 0-14.210937-4.84375-28.117187-13.546875-39.296875-.042968-.042968-.042968-.105468-.085937-.171875l-63.015625-86.121093c-3.242188-4.4375-9.34375-5.675782-14.058594-2.859376l-74.753906 44.628907c-4.777344 2.835937-6.570313 8.875-4.117188 13.847656l47.550782 97.023437c.042968.0625.109374.105469.152343.191407 10.515625 22.3125 33.171875 36.757812 57.898438 36.757812 7.570312 0 14.738281-1.558593 21.480469-3.96875l43.714843 75.777344-27.96875 16.53125c-5.058593 3.007813-6.742187 9.535156-3.753906 14.613281 2.003906 3.371094 5.542969 5.25 9.191406 5.25 1.855469 0 3.734375-.472656 5.441407-1.496094l36.929687-21.84375 37.738281-22.316406c5.035156-3.050781 6.71875-9.578125 3.730469-14.65625zm0 0" fill="#eceff1"/><path d="m329.085938 218.082031 71.574218-44.054687c2.773438 5.71875 4.714844 11.777344 4.714844 18.304687 0 23.53125-19.136719 42.664063-42.667969 42.664063-13.398437 0-25.640625-6.546875-33.621093-16.914063zm0 0" fill="#f44336"/><path d="m128.042969 256.351562c-35.289063 0-64-28.714843-64-64 0-14.421874 4.925781-28.566406 13.886719-39.828124 3.734374-4.628907 10.429687-5.355469 14.996093-1.707032 4.609375 3.691406 5.375 10.390625 1.707031 14.996094-6.058593 7.59375-9.257812 16.789062-9.257812 26.539062 0 23.53125 19.136719 42.667969 42.667969 42.667969 16.574219 0 31.785156-9.730469 38.738281-24.789062 2.496094-5.335938 8.8125-7.660157 14.167969-5.207031 5.351562 2.476562 7.65625 8.8125 5.203125 14.167968-10.429688 22.570313-33.238282 37.160156-58.109375 37.160156zm0 0"/><path d="m48.339844 342.601562c-1.8125 0-3.648438-.445312-5.332032-1.40625-5.101562-2.964843-6.847656-9.472656-3.925781-14.59375l53.671875-93.035156c2.96875-5.097656 9.429688-6.824218 14.59375-3.921875 5.097656 2.964844 6.847656 9.46875 3.925782 14.589844l-53.675782 93.035156c-2.003906 3.414063-5.566406 5.332031-9.257812 5.332031zm0 0"/><path d="m176.488281 225.375c-1.578125 0-3.179687-.363281-4.691406-1.085938-5.292969-2.605468-7.488281-8.980468-4.886719-14.273437l43.222656-88.210937-57.964843-34.605469-57.300781 78.273437c-3.457032 4.777344-10.152344 5.800782-14.890626 2.304688-4.777343-3.476563-5.78125-10.15625-2.304687-14.890625l63.019531-86.125c3.242188-4.480469 9.367188-5.695313 14.058594-2.878907l74.753906 44.628907c4.777344 2.859375 6.570313 8.875 4.117188 13.847656l-47.554688 97.023437c-1.832031 3.796876-5.628906 5.992188-9.578125 5.992188zm0 0"/><path d="m85.375 364.511719c-1.855469 0-3.734375-.46875-5.441406-1.472657l-74.664063-44.160156c-5.058593-3.007812-6.742187-9.535156-3.757812-14.632812 3.03125-5.035156 9.558593-6.71875 14.636719-3.753906l74.667968 44.160156c5.054688 3.007812 6.738282 9.535156 3.753906 14.632812-2.007812 3.351563-5.546874 5.226563-9.195312 5.226563zm0 0"/><path d="m362.707031 256.332031c-24.875 0-47.679687-14.59375-58.132812-37.164062-2.453125-5.355469-.148438-11.691407 5.207031-14.164063 5.351562-2.453125 11.667969-.148437 14.164062 5.203125 6.953126 15.0625 22.164063 24.789063 38.742188 24.789063 23.53125 0 42.664062-19.132813 42.664062-42.664063 0-9.75-3.199218-18.925781-9.277343-26.519531-3.671875-4.605469-2.902344-11.304688 1.707031-14.996094 4.585938-3.648437 11.285156-2.921875 14.996094 1.707032 8.960937 11.261718 13.886718 25.386718 13.886718 39.808593.042969 35.285157-28.671874 64-63.957031 64zm0 0"/><path d="m442.410156 342.601562c-3.691406 0-7.277344-1.917968-9.257812-5.332031l-53.675782-93.035156c-2.945312-5.097656-1.195312-11.625 3.925782-14.589844 5.078125-2.925781 11.605468-1.195312 14.589844 3.921875l53.675781 93.035156c2.945312 5.101563 1.195312 11.628907-3.925781 14.59375-1.683594.9375-3.519532 1.40625-5.332032 1.40625zm0 0"/><path d="m314.261719 225.355469c-3.949219 0-7.722657-2.199219-9.582031-5.972657l-47.550782-97.023437c-2.433594-4.972656-.640625-11.011719 4.117188-13.847656l74.753906-44.628907c4.734375-2.792968 10.816406-1.578124 14.058594 2.878907l63.015625 86.125c3.480469 4.757812 2.453125 11.414062-2.300781 14.890625-4.738282 3.453125-11.4375 2.429687-14.890626-2.304688l-57.304687-78.273437-57.980469 34.605469 43.21875 88.210937c2.582032 5.292969.40625 11.667969-4.882812 14.273437-1.496094.703126-3.09375 1.066407-4.671875 1.066407zm0 0"/><path d="m405.375 364.492188c-3.648438 0-7.191406-1.878907-9.195312-5.226563-3.007813-5.078125-1.324219-11.628906 3.753906-14.636719l74.667968-44.160156c5.035157-2.984375 11.605469-1.320312 14.632813 3.753906 3.007813 5.078125 1.324219 11.628906-3.753906 14.636719l-74.664063 44.160156c-1.707031 1.003907-3.585937 1.472657-5.441406 1.472657zm0 0"/><path d="m224.042969 64.351562c-4.800781 0-9.152344-3.21875-10.347657-8.085937l-10.667968-42.664063c-1.40625-5.71875 2.046875-11.5 7.765625-12.929687 5.589843-1.386719 11.5 2.046875 12.929687 7.765625l10.664063 42.667969c1.410156 5.714843-2.046875 11.496093-7.765625 12.925781-.851563.214844-1.726563.320312-2.578125.320312zm0 0"/><path d="m266.707031 64.351562c-.851562 0-1.707031-.105468-2.582031-.320312-5.738281-1.429688-9.191406-7.230469-7.765625-12.925781l10.667969-42.667969c1.410156-5.738281 7.148437-9.152344 12.929687-7.765625 5.738281 1.429687 9.195313 7.230469 7.765625 12.929687l-10.667968 42.664063c-1.195313 4.84375-5.546876 8.085937-10.347657 8.085937zm0 0"/><path d="m277.375 256.351562c-4.800781 0-9.152344-3.21875-10.347656-8.085937l-10.667969-42.664063c-1.40625-5.71875 2.050781-11.5 7.765625-12.929687 5.613281-1.429687 11.523438 2.046875 12.929688 7.765625l10.667968 42.667969c1.40625 5.714843-2.050781 11.496093-7.765625 12.925781-.855469.214844-1.730469.320312-2.582031.320312zm0 0"/><path d="m213.375 256.351562c-.855469 0-1.707031-.105468-2.582031-.320312-5.738281-1.429688-9.195313-7.230469-7.765625-12.925781l10.667968-42.667969c1.40625-5.738281 7.125-9.195312 12.925782-7.765625 5.738281 1.429687 9.195312 7.230469 7.765625 12.929687l-10.664063 42.664063c-1.195312 4.84375-5.546875 8.085937-10.347656 8.085937zm0 0"/></svg>